<?xml version="1.0" encoding="UTF-8"?>
<svg version="1.1" xmlns="http://www.w3.org/2000/svg" width="674" height="674">
<path d="M0 0 C1.60307762 -0.01052147 1.60307762 -0.01052147 3.23854065 -0.02125549 C6.66818501 -0.0386658 10.09765682 -0.04510765 13.52734375 -0.046875 C14.69779236 -0.04754974 15.86824097 -0.04822449 17.07415771 -0.04891968 C33.74787068 -0.03361797 50.00703782 0.29813945 66.46484375 3.203125 C67.50495605 3.37473145 68.54506836 3.54633789 69.61669922 3.72314453 C124.35964901 12.83746693 176.60647104 35.07264823 220.46484375 69.203125 C221.10583008 69.70134766 221.74681641 70.19957031 222.40722656 70.71289062 C240.00340487 84.49127306 257.18957377 99.9562682 271.46484375 117.203125 C271.90731445 117.72648437 272.34978516 118.24984375 272.80566406 118.7890625 C319.91351155 174.57547271 351.34395886 249.16502433 351.66796875 322.73828125 C351.67498306 323.80699966 351.68199738 324.87571808 351.68922424 325.9768219 C351.70663455 329.40646626 351.7130764 332.83593807 351.71484375 336.265625 C351.71585587 338.02129791 351.71585587 338.02129791 351.71688843 339.81243896 C351.70158672 356.48615193 351.3698293 372.74531907 348.46484375 389.203125 C348.2932373 390.2432373 348.12163086 391.28334961 347.94482422 392.35498047 C338.83050182 447.09793026 316.59532052 499.34475229 282.46484375 543.203125 C281.96662109 543.84411133 281.46839844 544.48509766 280.95507812 545.14550781 C267.17669569 562.74168612 251.71170055 579.92785502 234.46484375 594.203125 C233.94148437 594.6455957 233.418125 595.08806641 232.87890625 595.54394531 C177.09249604 642.6517928 102.50294442 674.08224011 28.9296875 674.40625 C27.86096909 674.41326431 26.79225067 674.42027863 25.69114685 674.42750549 C22.26150249 674.4449158 18.83203068 674.45135765 15.40234375 674.453125 C13.64667084 674.45413712 13.64667084 674.45413712 11.85552979 674.45516968 C-4.81818318 674.43986797 -21.07735032 674.10811055 -37.53515625 671.203125 C-38.57526855 671.03151855 -39.61538086 670.85991211 -40.68701172 670.68310547 C-95.42996151 661.56878307 -147.67678354 639.33360177 -191.53515625 605.203125 C-192.17614258 604.70490234 -192.81712891 604.20667969 -193.47753906 603.69335938 C-211.07371737 589.91497694 -228.25988627 574.4499818 -242.53515625 557.203125 C-242.97762695 556.67976562 -243.42009766 556.15640625 -243.87597656 555.6171875 C-290.98382405 499.83077729 -322.41427136 425.24122567 -322.73828125 351.66796875 C-322.74880272 350.06489113 -322.74880272 350.06489113 -322.75953674 348.4294281 C-322.77694705 344.99978374 -322.7833889 341.57031193 -322.78515625 338.140625 C-322.78583099 336.97017639 -322.78650574 335.79972778 -322.78720093 334.59381104 C-322.77189922 317.92009807 -322.4401418 301.66093093 -319.53515625 285.203125 C-319.3635498 284.1630127 -319.19194336 283.12290039 -319.01513672 282.05126953 C-309.90081432 227.30831974 -287.66563302 175.06149771 -253.53515625 131.203125 C-253.03693359 130.56213867 -252.53871094 129.92115234 -252.02539062 129.26074219 C-238.24700819 111.66456388 -222.78201305 94.47839498 -205.53515625 80.203125 C-204.75011719 79.53941895 -204.75011719 79.53941895 -203.94921875 78.86230469 C-148.16280854 31.7544572 -73.57325692 0.32400989 0 0 Z " fill="#030302" transform="translate(322.53515625,-0.203125)"/>
<path d="M0 0 C1.60307762 -0.01052147 1.60307762 -0.01052147 3.23854065 -0.02125549 C6.66818501 -0.0386658 10.09765682 -0.04510765 13.52734375 -0.046875 C14.69779236 -0.04754974 15.86824097 -0.04822449 17.07415771 -0.04891968 C33.74787068 -0.03361797 50.00703782 0.29813945 66.46484375 3.203125 C67.50495605 3.37473145 68.54506836 3.54633789 69.61669922 3.72314453 C124.35964901 12.83746693 176.60647104 35.07264823 220.46484375 69.203125 C221.10583008 69.70134766 221.74681641 70.19957031 222.40722656 70.71289062 C240.00340487 84.49127306 257.18957377 99.9562682 271.46484375 117.203125 C271.90731445 117.72648437 272.34978516 118.24984375 272.80566406 118.7890625 C319.91351155 174.57547271 351.34395886 249.16502433 351.66796875 322.73828125 C351.67498306 323.80699966 351.68199738 324.87571808 351.68922424 325.9768219 C351.70663455 329.40646626 351.7130764 332.83593807 351.71484375 336.265625 C351.71585587 338.02129791 351.71585587 338.02129791 351.71688843 339.81243896 C351.70158672 356.48615193 351.3698293 372.74531907 348.46484375 389.203125 C348.2932373 390.2432373 348.12163086 391.28334961 347.94482422 392.35498047 C338.83050182 447.09793026 316.59532052 499.34475229 282.46484375 543.203125 C281.96662109 543.84411133 281.46839844 544.48509766 280.95507812 545.14550781 C267.17669569 562.74168612 251.71170055 579.92785502 234.46484375 594.203125 C233.94148437 594.6455957 233.418125 595.08806641 232.87890625 595.54394531 C177.09249604 642.6517928 102.50294442 674.08224011 28.9296875 674.40625 C27.86096909 674.41326431 26.79225067 674.42027863 25.69114685 674.42750549 C22.26150249 674.4449158 18.83203068 674.45135765 15.40234375 674.453125 C13.64667084 674.45413712 13.64667084 674.45413712 11.85552979 674.45516968 C-4.81818318 674.43986797 -21.07735032 674.10811055 -37.53515625 671.203125 C-38.57526855 671.03151855 -39.61538086 670.85991211 -40.68701172 670.68310547 C-95.42996151 661.56878307 -147.67678354 639.33360177 -191.53515625 605.203125 C-192.17614258 604.70490234 -192.81712891 604.20667969 -193.47753906 603.69335938 C-211.07371737 589.91497694 -228.25988627 574.4499818 -242.53515625 557.203125 C-242.97762695 556.67976562 -243.42009766 556.15640625 -243.87597656 555.6171875 C-290.98382405 499.83077729 -322.41427136 425.24122567 -322.73828125 351.66796875 C-322.74880272 350.06489113 -322.74880272 350.06489113 -322.75953674 348.4294281 C-322.77694705 344.99978374 -322.7833889 341.57031193 -322.78515625 338.140625 C-322.78583099 336.97017639 -322.78650574 335.79972778 -322.78720093 334.59381104 C-322.77189922 317.92009807 -322.4401418 301.66093093 -319.53515625 285.203125 C-319.3635498 284.1630127 -319.19194336 283.12290039 -319.01513672 282.05126953 C-309.90081432 227.30831974 -287.66563302 175.06149771 -253.53515625 131.203125 C-253.03693359 130.56213867 -252.53871094 129.92115234 -252.02539062 129.26074219 C-238.24700819 111.66456388 -222.78201305 94.47839498 -205.53515625 80.203125 C-204.75011719 79.53941895 -204.75011719 79.53941895 -203.94921875 78.86230469 C-148.16280854 31.7544572 -73.57325692 0.32400989 0 0 Z M37.91259766 111.20898438 C10.72080988 111.29595635 -16.81583242 116.54781134 -42.53515625 125.203125 C-43.4154248 125.4933252 -44.29569336 125.78352539 -45.20263672 126.08251953 C-56.16197802 129.71131973 -66.9009019 133.80303441 -77.51464844 138.34130859 C-79.4988632 139.18764476 -81.48909558 140.01833003 -83.48046875 140.84765625 C-104.53704064 149.72005736 -124.807582 161.12571914 -143.53515625 174.203125 C-144.2012793 174.66557617 -144.86740234 175.12802734 -145.55371094 175.60449219 C-168.93174436 191.90142863 -190.70677079 211.06777897 -207.53515625 234.203125 C-208.19902344 235.06035156 -208.86289063 235.91757813 -209.546875 236.80078125 C-221.19946659 252.09333046 -231.93792186 270.02438404 -237.64453125 288.42578125 C-238.46632001 290.98846462 -239.42082428 293.41548072 -240.47265625 295.890625 C-248.52172693 315.69640914 -251.73588172 336.55099368 -251.72265625 357.828125 C-251.72271667 358.49642334 -251.7227771 359.16472168 -251.72283936 359.85327148 C-251.71041834 369.48620438 -251.23043754 378.70490516 -249.53515625 388.203125 C-249.19738479 390.74420567 -248.86403016 393.28587747 -248.53515625 395.828125 C-247.99314586 399.98031175 -247.13303216 403.34942429 -245.53515625 407.203125 C-245.0471065 408.97230535 -244.56056271 410.74197013 -244.09179688 412.51635742 C-233.59755745 451.38646793 -208.96916879 487.13860341 -178.53515625 513.203125 C-177.58769531 514.03972656 -176.64023438 514.87632812 -175.6640625 515.73828125 C-140.68611372 546.3624232 -94.53300843 563.74022135 -49.03515625 570.765625 C-47.89820313 570.95415039 -47.89820313 570.95415039 -46.73828125 571.14648438 C-31.96481301 573.42207505 -16.87317154 573.38975946 -1.95922852 573.38842773 C0.76497023 573.39061506 3.48876274 573.40887296 6.21289062 573.42773438 C38.46766704 573.53043871 72.89745149 568.96861156 102.38671875 555.15234375 C104.57075613 554.15474773 106.78242706 553.30426063 109.02734375 552.453125 C115.69886466 549.80930247 122.0522609 546.52880803 128.42871094 543.25 C129.73223597 542.57979432 131.03742898 541.91281685 132.34472656 541.25 C155.77872344 529.35021891 177.32973059 514.18968122 196.86474609 496.64013672 C198.33431199 495.32035264 199.81507236 494.01306144 201.296875 492.70703125 C209.68406454 485.27322424 217.34637077 477.57201435 224.3515625 468.8125 C226.14223755 466.60146315 227.98574473 464.49125344 229.90234375 462.390625 C238.03387911 453.08948524 244.473248 442.76840754 250.71484375 432.140625 C251.29306885 431.16029297 251.87129395 430.17996094 252.46704102 429.16992188 C259.27126899 417.41121586 264.37885461 405.35717999 268.58984375 392.453125 C268.80584229 391.79770721 269.02184082 391.14228943 269.24438477 390.4670105 C272.51602057 380.52032382 275.73822773 370.5538923 277.46484375 360.203125 C277.63781982 359.19685059 277.8107959 358.19057617 277.98901367 357.15380859 C279.7033202 345.9975004 279.82096142 334.96867236 279.77734375 323.703125 C279.77552094 322.72923828 279.77369812 321.75535156 279.77182007 320.75195312 C279.72653843 306.39398782 279.37279649 292.31261567 276.46484375 278.203125 C276.30387207 277.39262695 276.14290039 276.58212891 275.97705078 275.74707031 C270.27252106 247.98612164 258.96897197 222.1807425 242.46484375 199.203125 C241.87799805 198.38086426 241.87799805 198.38086426 241.27929688 197.54199219 C227.43500036 178.34195701 210.12982734 161.34388868 190.46484375 148.203125 C189.27568359 147.39294922 189.27568359 147.39294922 188.0625 146.56640625 C176.36473227 138.83398351 163.64924629 132.00618603 150.46484375 127.203125 C149.41876953 126.75453125 149.41876953 126.75453125 148.3515625 126.296875 C135.51798236 120.79993567 121.828556 117.32366057 108.21484375 114.390625 C107.28269043 114.18381104 106.35053711 113.97699707 105.39013672 113.76391602 C90.95538364 110.78911039 76.13788581 111.02404635 61.46484375 111.078125 C60.6081308 111.08100525 59.75141785 111.0838855 58.8687439 111.08685303 C53.79465306 111.1067706 48.72084114 111.14226976 43.64691162 111.18676758 C41.73551299 111.20109598 39.82404739 111.20583147 37.91259766 111.20898438 Z " fill="#010101" transform="translate(322.53515625,-0.203125)"/>
<path d="M0 0 C0.62132812 0.53367188 1.24265625 1.06734375 1.8828125 1.6171875 C2.58664062 2.21273437 3.29046875 2.80828125 4.015625 3.421875 C10.47798352 9.35961401 15.32987001 17.00987471 16.07568359 25.921875 C16.90017918 52.22578259 11.48121676 76.56729708 3.8828125 101.6171875 C3.44875245 103.07538211 3.01510576 104.53369989 2.58203125 105.9921875 C0.13091333 114.12098584 0.13091333 114.12098584 -1.1171875 116.6171875 C-0.4571875 116.6171875 0.2028125 116.6171875 0.8828125 116.6171875 C1.16334473 116.02583008 1.44387695 115.43447266 1.73291016 114.82519531 C2.7863342 112.80244222 3.90518361 111.10071442 5.28125 109.2890625 C5.75449707 108.66233643 6.22774414 108.03561035 6.71533203 107.38989258 C7.22435059 106.7223999 7.73336914 106.05490723 8.2578125 105.3671875 C9.34647073 103.92847361 10.43500901 102.48966895 11.5234375 101.05078125 C12.08095703 100.31585449 12.63847656 99.58092773 13.21289062 98.82373047 C15.32206814 96.03677925 17.41477566 93.23773597 19.5065918 90.43774414 C21.95799993 87.15870171 24.41927041 83.88711936 26.8828125 80.6171875 C27.31835449 80.03839844 27.75389648 79.45960938 28.20263672 78.86328125 C34.48704041 70.53239931 41.07663925 62.5242037 47.8828125 54.6171875 C48.47449219 53.91207031 49.06617188 53.20695312 49.67578125 52.48046875 C51.37034128 50.4846536 53.11406902 48.54768485 54.8828125 46.6171875 C55.30159668 46.14845215 55.72038086 45.6797168 56.15185547 45.19677734 C66.62092517 33.59298625 80.6514084 21.51138629 96.86328125 20.2109375 C106.57366739 19.85604246 113.61358713 21.04838104 121.8828125 26.6171875 C122.5221875 27.03871094 123.1615625 27.46023437 123.8203125 27.89453125 C139.59706776 39.90969903 146.6059244 59.82258684 150.46875 78.44140625 C152.76030242 96.01718096 151.06378834 115.32189617 143.8828125 131.6171875 C143.60953125 132.29523438 143.33625 132.97328125 143.0546875 133.671875 C138.50973596 143.95999258 130.51012963 152.03187374 120.8828125 157.6171875 C120.11066406 158.06578125 119.33851563 158.514375 118.54296875 158.9765625 C107.76828598 164.491566 94.78584767 166.80713918 82.8828125 168.6171875 C87.41772712 169.92533595 91.4150345 170.67065972 96.1328125 170.8046875 C112.65658083 172.00145344 129.44776295 180.11190216 140.80859375 192.0234375 C150.72553062 204.42427758 153.10483138 217.2779714 151.8828125 232.6171875 C149.26550023 253.11946695 137.29077469 272.24954907 121.8828125 285.6171875 C111.00224724 293.76471978 98.26860025 296.35807502 84.8828125 294.6171875 C80.25469843 293.45239369 76.14834055 291.74182155 71.8828125 289.6171875 C70.89925781 289.1325 69.91570312 288.6478125 68.90234375 288.1484375 C60.22965078 283.47411949 53.1313311 277.19710483 45.8828125 270.6171875 C45.07529541 269.89426514 45.07529541 269.89426514 44.25146484 269.15673828 C33.34284272 259.36847905 23.08678723 248.89161043 12.78076172 238.47851562 C7.52099556 233.17443827 2.28759625 227.93254641 -3.41430664 223.09741211 C-6.12489656 220.74123911 -8.61001355 218.1870408 -11.1171875 215.6171875 C-10.87484375 216.638125 -10.6325 217.6590625 -10.3828125 218.7109375 C-9.22853264 223.66597991 -8.1596458 228.63752513 -7.1171875 233.6171875 C-6.82908203 234.98182129 -6.82908203 234.98182129 -6.53515625 236.37402344 C-0.3437238 266.54146214 0.3071448 300.50666117 -15.99609375 327.7578125 C-17.90804808 330.52338684 -19.9227761 333.07103074 -22.1171875 335.6171875 C-22.85582031 336.48988281 -23.59445312 337.36257813 -24.35546875 338.26171875 C-34.97275177 349.8521079 -50.38007159 356.10657595 -65.984375 356.9609375 C-84.70555571 357.5203139 -104.49829733 354.00322959 -119.16015625 341.5 C-128.9698677 332.06231353 -134.86934246 323.40260899 -135.4921875 309.5546875 C-134.69143219 280.72749642 -112.67596835 256.29812325 -95.3671875 234.9921875 C-91.461773 230.15993021 -87.83430718 225.13932669 -84.1796875 220.1171875 C-79.75321592 214.04320565 -75.3029093 208.23761962 -70.08203125 202.8203125 C-68.39549358 200.92924442 -66.95387762 199.04379696 -65.49438477 196.97949219 C-65.04805191 196.34968445 -64.60171906 195.71987671 -64.14186096 195.07098389 C-63.6346476 194.35135468 -63.6346476 194.35135468 -63.1171875 193.6171875 C-64.10074219 193.95862793 -65.08429688 194.30006836 -66.09765625 194.65185547 C-158.3876098 226.6462422 -158.3876098 226.6462422 -203.1171875 225.6171875 C-203.1171875 224.9571875 -203.1171875 224.2971875 -203.1171875 223.6171875 C-204.3753125 223.5759375 -205.6334375 223.5346875 -206.9296875 223.4921875 C-217.31706625 222.28549044 -225.75826331 215.5833123 -232.1171875 207.6171875 C-237.86703957 199.1458752 -241.68283634 190.61590666 -244.1171875 180.6171875 C-244.31054688 179.84503906 -244.50390625 179.07289063 -244.703125 178.27734375 C-247.77382925 158.54951738 -243.53811881 139.83757633 -232.1171875 123.6171875 C-222.56006427 111.2695302 -209.97029591 101.15462092 -194.1171875 98.6171875 C-177.1600417 97.15998032 -161.71580546 99.38893858 -145.6796875 104.9296875 C-144.55498047 105.30802734 -143.43027344 105.68636719 -142.27148438 106.07617188 C-134.47292876 108.72347019 -126.78523083 111.61513767 -119.1171875 114.6171875 C-117.83581909 115.11182495 -117.83581909 115.11182495 -116.52856445 115.61645508 C-104.11591955 120.41222086 -92.07176119 125.77513339 -80.1171875 131.6171875 C-81.04982152 130.35379595 -81.98527602 129.09248624 -82.921875 127.83203125 C-83.44249512 127.12941162 -83.96311523 126.42679199 -84.49951172 125.70288086 C-86.00079568 123.7672532 -87.57256639 121.97022747 -89.2421875 120.1796875 C-106.39917089 100.82114429 -125.12743245 73.00155246 -124.53125 46.3359375 C-122.79520482 30.74428648 -111.20651978 19.50970379 -99.921875 9.7109375 C-86.66303343 -0.36388118 -70.39462836 -6.54807745 -54.1171875 -9.3828125 C-52.73080078 -9.66125 -52.73080078 -9.66125 -51.31640625 -9.9453125 C-33.73169756 -12.35005899 -14.62697017 -11.07060879 0 0 Z " fill="#FAFAFA" transform="translate(370.1171875,159.3828125)"/>
<path d="M0 0 C5.15052098 -0.04393541 10.30098397 -0.07057417 15.45166016 -0.08789062 C16.68947739 -0.0924527 16.68947739 -0.0924527 17.95230103 -0.09710693 C33.5736285 -0.134889 48.75821457 0.21914011 64.07666016 3.66210938 C65.2694458 3.92427246 66.46223145 4.18643555 67.69116211 4.45654297 C82.04792584 7.71200589 96.08560515 11.82876288 109.45166016 18.03710938 C110.27529053 18.41383789 111.0989209 18.79056641 111.94750977 19.17871094 C122.18388865 23.88345063 132.18562232 28.57678175 141.45166016 35.03710938 C142.44681641 35.68808594 143.44197266 36.3390625 144.46728516 37.00976562 C161.95610719 48.64785855 177.6482291 63.39926007 190.45166016 80.03710938 C190.8727002 80.5764209 191.29374023 81.11573242 191.72753906 81.67138672 C199.66154362 91.8821812 206.30217014 102.67010824 212.45166016 114.03710938 C213.01498047 115.07609375 213.57830078 116.11507812 214.15869141 117.18554688 C228.85425331 146.73860526 233.90264991 178.98663483 233.82666016 211.59960938 C233.82545166 212.56477478 233.82424316 213.52994019 233.82299805 214.52435303 C233.73856122 239.43991156 229.61795816 261.43595689 221.45166016 285.03710938 C221.15356445 285.89981445 220.85546875 286.76251953 220.54833984 287.65136719 C210.81977167 315.25826408 194.56733081 340.20851755 174.71728516 361.58789062 C172.74408499 363.72098805 170.83871313 365.89069924 168.95166016 368.09960938 C162.31987911 375.69206899 155.14854465 382.49512076 147.26806641 388.77539062 C144.45927448 391.03099468 141.74231111 393.37249048 139.01416016 395.72460938 C120.51028907 411.10878019 99.65340804 423.90884332 77.99072266 434.33007812 C74.69198508 435.92119106 71.44978734 437.59590104 68.20166016 439.28710938 C63.31903473 441.73505609 58.39102064 443.53547129 53.18603516 445.17382812 C50.90410881 445.89426487 48.6825122 446.67518927 46.45166016 447.53710938 C36.99230241 451.13925151 27.44776534 453.93634383 17.57666016 456.16210938 C16.43551758 456.42145264 15.294375 456.6807959 14.11865234 456.94799805 C-5.30130043 461.28523158 -24.46592842 462.24406966 -44.29833984 462.22460938 C-45.71616257 462.22470001 -45.71616257 462.22470001 -47.16262817 462.22479248 C-111.77064785 462.16607716 -176.57169095 445.12858388 -225.54833984 401.03710938 C-226.18271973 400.46976074 -226.81709961 399.90241211 -227.47070312 399.31787109 C-258.43040291 371.47285937 -282.78055009 334.95656931 -292.07983398 294.00292969 C-292.53120169 292.10901996 -293.06759744 290.23599448 -293.60693359 288.36523438 C-294.46400924 285.3352408 -295.10057914 282.39155262 -295.61083984 279.28710938 C-295.76681641 278.36414063 -295.92279297 277.44117188 -296.08349609 276.49023438 C-297.3979672 266.72559187 -297.73086324 257.073309 -297.73583984 247.22460938 C-297.75420898 245.3287207 -297.75420898 245.3287207 -297.77294922 243.39453125 C-297.79071421 231.82952301 -296.3468994 220.62072291 -293.79833984 209.34960938 C-293.63205078 208.60976807 -293.46576172 207.86992676 -293.29443359 207.10766602 C-291.94556804 201.32343456 -290.31992855 195.64268539 -288.54833984 189.97460938 C-288.31147461 189.2138208 -288.07460938 188.45303223 -287.83056641 187.66918945 C-286.31437195 182.97196965 -284.49032892 178.50210221 -282.44091797 174.01293945 C-281.46134251 171.84453022 -280.61803187 169.64535192 -279.79833984 167.41210938 C-271.67364239 147.06911689 -258.77235892 128.5325159 -244.54833984 112.03710938 C-243.81486328 111.1734375 -243.08138672 110.30976563 -242.32568359 109.41992188 C-231.82894779 97.40631674 -220.34180185 85.59447942 -207.54833984 76.03710938 C-206.90848145 75.55854492 -206.26862305 75.07998047 -205.609375 74.58691406 C-173.9251018 51.01027903 -138.22496564 29.44937504 -100.10693359 18.11523438 C-97.58200934 17.35027379 -95.17937856 16.54413429 -92.72412109 15.60351562 C-63.07636012 4.3237394 -31.52485652 0.27646963 0 0 Z M-49.86083984 23.78710938 C-51.09922607 24.04806396 -52.3376123 24.30901855 -53.61352539 24.57788086 C-63.62610677 26.73669614 -73.46205848 29.31731474 -83.24951172 32.33007812 C-85.48565205 33.01782902 -87.72690602 33.68567044 -89.97021484 34.34960938 C-122.49651745 44.13922403 -154.36287632 60.79351041 -181.54833984 81.03710938 C-182.1408252 81.47265137 -182.73331055 81.90819336 -183.34375 82.35693359 C-190.56039536 87.67284823 -197.30019798 93.37635998 -203.82958984 99.50585938 C-206.12746948 101.64526455 -208.46492791 103.69729928 -210.86083984 105.72460938 C-214.1443178 108.57480364 -216.9834243 111.65096221 -219.78662109 114.97070312 C-220.9400885 116.32366157 -222.12452564 117.65095437 -223.34130859 118.94726562 C-242.43756738 139.38223121 -256.61137296 166.32869019 -264.54833984 193.03710938 C-264.76619141 193.75012207 -264.98404297 194.46313477 -265.20849609 195.19775391 C-265.89996983 197.47319642 -266.571163 199.75370571 -267.23583984 202.03710938 C-267.53977661 203.04922485 -267.53977661 203.04922485 -267.84985352 204.08178711 C-271.39260088 216.67575886 -271.8990638 229.53453155 -271.86401367 242.52514648 C-271.86084706 244.96903929 -271.88444948 247.41172358 -271.90966797 249.85546875 C-272.01453969 274.87367191 -265.63414595 302.11221752 -253.54833984 324.03710938 C-252.87550556 325.31915847 -252.20367281 326.60173357 -251.53271484 327.88476562 C-243.10523409 343.69882147 -232.75485333 357.59780693 -220.19726562 370.35742188 C-218.6605126 371.92284397 -217.14678105 373.50711409 -215.63818359 375.09960938 C-209.43417266 381.52678617 -202.86009935 386.91798277 -195.54833984 392.03710938 C-195.01321777 392.42189453 -194.4780957 392.80667969 -193.92675781 393.203125 C-166.7888706 412.67039719 -133.82115723 427.02079933 -100.29077148 429.64794922 C-90.0734191 430.45440245 -81.20767789 432.6355937 -71.67797852 436.40454102 C-66.00751976 438.08884213 -60.19619063 438.19521447 -54.32568359 438.20507812 C-53.55161163 438.20935822 -52.77753967 438.21363831 -51.98001099 438.2180481 C-49.48189461 438.22801021 -46.98397228 438.22810485 -44.48583984 438.22460938 C-43.20421463 438.2232045 -43.20421463 438.2232045 -41.896698 438.22177124 C-7.32295138 438.13947114 25.79350349 432.49145386 57.45166016 418.03710938 C58.49064453 417.62460937 59.52962891 417.21210937 60.60009766 416.78710938 C86.93901619 406.27656706 112.35868558 389.30280013 133.18994141 370.11523438 C135.24192432 368.22982003 137.3331797 366.40940905 139.45166016 364.59960938 C147.07579409 357.92657464 153.92665006 350.72692467 160.24072266 342.80664062 C161.6894282 340.99191937 163.16280003 339.19655712 164.66259766 337.42382812 C178.35060972 321.21434015 189.14541736 302.93587651 196.45166016 283.03710938 C196.86931641 281.9671875 197.28697266 280.89726562 197.71728516 279.79492188 C207.6051149 253.69856109 211.40337718 227.82207868 210.45166016 200.03710938 C210.42507324 199.16505859 210.39848633 198.29300781 210.37109375 197.39453125 C209.47916861 174.87227802 202.83558433 150.46825959 193.45166016 130.03710938 C193.01200928 129.05895264 193.01200928 129.05895264 192.56347656 128.06103516 C178.6879209 97.56177007 155.37019616 68.77790832 127.45166016 50.03710938 C126.61320557 49.4727417 126.61320557 49.4727417 125.7578125 48.89697266 C100.29203597 32.02087096 69.45625903 23.61601794 39.45166016 20.03710938 C38.57010254 19.93180908 37.68854492 19.82650879 36.78027344 19.71801758 C27.31686347 18.76489885 17.81027855 18.85102581 8.30908203 18.85180664 C5.35385523 18.84962941 2.39900833 18.83144334 -0.55615234 18.8125 C-17.37476284 18.7605774 -33.39806678 20.26390295 -49.86083984 23.78710938 Z " fill="#FAFAFA" transform="translate(368.54833984375,110.962890625)"/>
<path d="M0 0 C1.19665283 0.01800659 1.19665283 0.01800659 2.41748047 0.03637695 C7.88478663 0.16799106 12.83299236 0.65605562 18.0625 2.3125 C19.18011719 2.63089844 20.29773438 2.94929688 21.44921875 3.27734375 C48.28150809 11.08814812 73.86706341 23.63702389 98.93359375 35.80761719 C101.80228545 37.18734687 104.67990368 38.54646001 107.56283569 39.89614868 C110.07617396 41.07363838 112.58574325 42.25903843 115.09503174 43.44512939 C116.90834125 44.29877307 118.72635874 45.14239291 120.54443359 45.98583984 C121.64094238 46.5061377 122.73745117 47.02643555 123.8671875 47.5625 C124.84671387 48.02140625 125.82624023 48.4803125 126.83544922 48.953125 C129.0625 50.3125 129.0625 50.3125 130.0625 53.3125 C129.31226563 53.55484375 128.56203125 53.7971875 127.7890625 54.046875 C126.76554688 54.38203125 125.74203125 54.7171875 124.6875 55.0625 C123.68976563 55.38734375 122.69203125 55.7121875 121.6640625 56.046875 C118.97657499 56.99128493 116.36182504 57.98605758 113.7265625 59.05859375 C106.16312869 62.11324875 98.48385751 64.85574359 90.8125 67.625 C90.01392578 67.91351837 89.21535156 68.20203674 88.39257812 68.4992981 C76.50208035 72.78791576 64.58424476 76.90670608 52.48339844 80.56835938 C50.02324141 81.32456738 47.57820439 82.11931459 45.1328125 82.921875 C24.23854698 89.65996654 -2.46381582 96.78970602 -23.9375 89.3125 C-32.79898028 84.43934616 -37.91360669 76.76965306 -41.3125 67.4375 C-45.30987131 53.06039983 -43.9925224 36.86272934 -37.546875 23.41015625 C-36.12915675 20.92914931 -34.61594256 18.62352142 -32.9375 16.3125 C-32.26074219 15.34570312 -32.26074219 15.34570312 -31.5703125 14.359375 C-24.08788538 4.6364471 -11.99918161 -0.28240885 0 0 Z " fill="#020202" transform="translate(187.9375,274.6875)"/>
<path d="M0 0 C10.12554788 4.75280819 17.43902007 16.49468534 21.41015625 26.58203125 C28.70138407 46.9682416 29.92808791 68.60916714 20.8359375 88.65625 C14.7736007 99.69744213 6.64308885 105.02327376 -5 109 C-7.73849324 109.78968809 -10.49402106 110.44334038 -13.27734375 111.0546875 C-14.05037338 111.22491425 -14.82340302 111.39514099 -15.61985779 111.57052612 C-24.52910799 113.44197151 -33.50699971 114.30526336 -42.5625 115.125 C-45.85579259 115.43673349 -49.14857557 115.75374067 -52.44140625 116.0703125 C-53.64100479 116.18492325 -53.64100479 116.18492325 -54.86483765 116.30184937 C-71.46590241 117.76580652 -71.46590241 117.76580652 -87.75 121.125 C-94.90558766 122.98446443 -101.58891723 123.46399823 -109 123 C-99.20024163 96.86731103 -78.33532465 72.63795677 -61.36132812 50.75927734 C-60.2484023 49.32101632 -59.14609066 47.87454748 -58.046875 46.42578125 C-52.66839981 39.36326893 -46.84434165 32.67717844 -41 26 C-40.50306641 25.42636719 -40.00613281 24.85273438 -39.49414062 24.26171875 C-16.16067588 -2.55481273 -16.16067588 -2.55481273 0 0 Z " fill="#020202" transform="translate(475,198)"/>
<path d="M0 0 C4.92705884 3.78141751 8.50469644 7.76408932 10.5 13.75 C11.66872337 40.79371518 4.54467642 63.94661113 -3.9887085 89.27774048 C-7.03408743 98.31878156 -9.98146705 107.38775466 -12.86254883 116.48266602 C-15.01130808 123.26025287 -17.23568376 130.01013848 -19.5 136.75 C-20.16 136.75 -20.82 136.75 -21.5 136.75 C-22.9453125 135.24609375 -22.9453125 135.24609375 -24.625 133.1875 C-26.96676936 130.43388572 -29.29668052 127.95066757 -32.0625 125.625 C-42.22726359 116.96319756 -51.24832541 107.22806982 -59.5 96.75 C-60.97903874 94.99989188 -62.45820807 93.24989411 -63.9375 91.5 C-76.24469311 76.41031106 -91.80647134 55.44820953 -93.0625 35.3125 C-91.13029844 23.07522346 -81.4763988 15.11408877 -71.96484375 8.14453125 C-52.5316194 -5.5804222 -21.62183807 -14.10809082 0 0 Z " fill="#020202" transform="translate(357.5,172.25)"/>
<path d="M0 0 C0.71897461 0.16193848 1.43794922 0.32387695 2.17871094 0.49072266 C17.97296792 4.10093378 30.9666566 9.88277979 39.9375 24.0625 C43.70435233 34.4213439 41.07614925 47.16928711 37 57 C30.3149081 70.39794838 22.75457888 83.12271056 9 90 C-1.56307684 90.93894016 -9.28303153 88.96064167 -17.43359375 82.19921875 C-18.28050781 81.47347656 -19.12742187 80.74773437 -20 80 C-21.07341685 79.10970935 -22.14769294 78.22045404 -23.22265625 77.33203125 C-29.93333017 71.73399329 -36.30313578 65.90565206 -42.38574219 59.62841797 C-45.03196873 56.90805522 -47.73239357 54.33994884 -50.62207031 51.87792969 C-55.36332344 47.74875555 -59.76732371 43.32291139 -64.1796875 38.84765625 C-65.93085122 37.08384699 -67.68215772 35.32017948 -69.43359375 33.55664062 C-72.15613054 30.80933566 -74.87702803 28.06044704 -77.59521484 25.30883789 C-80.24385486 22.62975649 -82.89887809 19.95712814 -85.5546875 17.28515625 C-86.35292938 16.47345474 -87.15117126 15.66175323 -87.97360229 14.82545471 C-92.76500153 10.01314635 -97.71992044 5.70886389 -103.14456177 1.61888123 C-103.75685638 1.08465042 -104.369151 0.55041962 -105 0 C-105 -0.66 -105 -1.32 -105 -2 C-100.62546599 -2.48348198 -96.25029531 -2.96096074 -91.875 -3.4375 C-90.04775391 -3.63956055 -90.04775391 -3.63956055 -88.18359375 -3.84570312 C-58.86326738 -7.02595017 -28.85949165 -6.88763246 0 0 Z " fill="#020202" transform="translate(462,346)"/>
<path d="M0 0 C1.90224137 2.85336205 2.48909726 4.45085413 3.21875 7.7109375 C3.42886719 8.62617188 3.63898438 9.54140625 3.85546875 10.484375 C4.06816406 11.43828125 4.28085937 12.3921875 4.5 13.375 C4.92343332 15.25863672 5.35040891 17.14148133 5.78125 19.0234375 C5.96751953 19.85794434 6.15378906 20.69245117 6.34570312 21.55224609 C6.95559916 24.03620623 6.95559916 24.03620623 7.99780273 26.46069336 C9.06625595 29.16787531 9.68016437 31.75355649 10.25390625 34.60546875 C10.46853516 35.67216797 10.68316406 36.73886719 10.90429688 37.83789062 C11.23010742 39.49594727 11.23010742 39.49594727 11.5625 41.1875 C11.78357422 42.27353516 12.00464844 43.35957031 12.23242188 44.47851562 C15.58390286 61.33717375 16.09247951 78.09278825 13.6875 95.125 C13.56987305 95.96458252 13.45224609 96.80416504 13.33105469 97.66918945 C11.29870627 110.78199501 7.00290117 122.83734253 -3 132 C-11.82117407 138.16230954 -20.08947764 139.36991876 -30.625 139.3125 C-32.23133301 139.30404053 -32.23133301 139.30404053 -33.87011719 139.29541016 C-46.66808572 139.09914614 -60.08043669 137.10454029 -70.01171875 128.1953125 C-74.8970036 122.68310248 -76.42325456 118.40686546 -76.23828125 111.046875 C-74.4322248 87.95303838 -56.70780505 68.48761866 -43 51 C-41.79147956 49.43764471 -40.58312854 47.87515835 -39.375 46.3125 C-35.6257877 41.50692765 -31.83252436 36.73941019 -28 32 C-27.25919189 31.07888428 -27.25919189 31.07888428 -26.50341797 30.13916016 C-18.07675126 19.6808173 -9.28992598 9.69936041 0 0 Z " fill="#030303" transform="translate(331,356)"/>
<path d="M0 0 C3.54568826 3.34870558 5.09338934 5.89821652 5.71875 10.796875 C5.75274962 12.15586467 5.76229973 13.51564073 5.75 14.875 C5.74572998 15.5851123 5.74145996 16.29522461 5.73706055 17.02685547 C5.53625026 23.23849234 4.00051033 27.27754375 0.25 32.125 C-0.801875 33.671875 -0.801875 33.671875 -1.875 35.25 C-6.99817645 41.05626664 -14.08564367 45.25584619 -21.75 46.125 C-21.75 46.785 -21.75 47.445 -21.75 48.125 C-36.08790683 48.70714058 -36.08790683 48.70714058 -41.75 45.125 C-45.9885213 41.04419112 -49.40707424 36.99113743 -50.12109375 31.0234375 C-50.29861927 21.60414228 -49.13454491 15.11801236 -42.8359375 7.9453125 C-31.03702134 -3.42455216 -14.50253166 -9.88808977 0 0 Z " fill="#F7F7F7" transform="translate(212.75,411.875)"/>
<path d="M0 0 C5.11612534 4.52122705 9.06640479 9.00118213 10.05859375 15.98828125 C10.22641867 22.80987073 9.32796534 27.2585895 4.6875 32.375 C-1.69893099 38.5143737 -8.5539116 42.32480568 -17.5 42.75 C-24.4045071 42.07086815 -27.82296776 39.22861338 -32.11328125 34.09375 C-35.64510522 29.03185246 -34.99924827 22.22902893 -34.3125 16.375 C-31.67164702 9.22228382 -26.92443329 4.07561237 -20.3125 0.375 C-13.76709047 -2.29164833 -6.44336037 -3.16089376 0 0 Z " fill="#F8F8F8" transform="translate(410.3125,469.625)"/>
<path d="M0 0 C4.41033442 2.99753238 7.61310022 6.49164442 9.3046875 11.56640625 C9.89871538 17.13663491 9.92855502 22.17598354 6.78515625 26.96484375 C2.88870231 31.180005 -2.90372207 35.27698939 -8.671875 35.875 C-15.76467015 36.12560197 -20.73818681 36.18602974 -26.14453125 31.2890625 C-30.95325662 25.94738017 -33.08583019 21.13009745 -32.96875 13.90625 C-32.23526889 7.62974732 -28.18934078 3.57805657 -23.41015625 -0.2109375 C-15.81349295 -5.6272373 -7.8027363 -4.265982 0 0 Z " fill="#F8F8F8" transform="translate(546.6953125,309.43359375)"/>
<path d="M0 0 C3.25277234 1.63205302 5.59967444 2.81801748 7.125 6.25 C8.87576177 12.59651143 7.85294754 16.34124296 4.62109375 22.04296875 C1.72497174 26.31531584 -0.8442496 27.85433121 -5.90234375 28.83984375 C-15.4785288 29.99161858 -15.4785288 29.99161858 -20 27.6875 C-23.86758179 24.40846327 -25.52614087 21.92749384 -26.1875 16.8515625 C-26.462586 11.12633511 -25.78403944 7.68728801 -21.875 3.25 C-15.27425635 -2.70676866 -8.14156112 -3.39231714 0 0 Z " fill="#F7F7F7" transform="translate(211.875,211.75)"/>
<path d="M0 0 C4.04679983 0.64380906 5.9261303 2.54945145 8.75 5.4375 C11.34454961 9.68312663 11.54662085 14.60144815 10.75 19.4375 C8.78172284 23.96218493 6.11532024 27.96381853 1.75 30.4375 C-2.65529834 31.90593278 -6.6623776 32.29006699 -11.25 31.4375 C-14.94090531 29.14120386 -18.28451014 26.36847972 -20.25 22.4375 C-20.92936968 17.41942852 -21.28782127 12.58009876 -19.0390625 7.9375 C-15.2729469 3.12818805 -11.62031534 1.3581627 -5.60546875 0.62109375 C-3.73122906 0.47500873 -1.86311899 0.25080448 0 0 Z " fill="#F8F8F8" transform="translate(424.25,150.5625)"/>
<path d="M0 0 C0.46509643 5.69743121 -0.55173151 9.49154959 -4 14 C-6.27787994 16.67549804 -8.50682021 18.73256481 -12.09375 19.375 C-14.25 19.4375 -14.25 19.4375 -18 19 C-20 17 -20 17 -20.4375 13.1875 C-20.35031509 9.74369597 -20.08126594 9.1021629 -17.8125 6.25 C-16.4203125 5.13625 -16.4203125 5.13625 -15 4 C-14.278125 3.236875 -13.55625 2.47375 -12.8125 1.6875 C-8.64993191 -0.81004085 -4.73793546 -0.33119549 0 0 Z " fill="#090909" transform="translate(200,425)"/>
<path d="M0 0 C4.24465971 0.27682563 6.81617671 1.18354094 10 4 C8.63016497 7.16115776 8.0109362 7.9927092 5 10 C2.4375 10.25 2.4375 10.25 0 10 C-2 8 -2 8 -2.25 5 C-2 2 -2 2 0 0 Z " fill="#0E0E0E" transform="translate(532,321)"/>
<path d="M0 0 C0.33 2.31 0.66 4.62 1 7 C-2.42346555 10.14958831 -5.44262737 10.56179109 -10 11 C-9.49697411 6.59852343 -7.97554199 4.24604581 -5 1 C-3 0 -3 0 0 0 Z " fill="#171717" transform="translate(403,483)"/>
</svg>
