<?xml version="1.0" encoding="UTF-8"?>
<svg version="1.1" xmlns="http://www.w3.org/2000/svg" width="1024" height="1024">
<path d="M0 0 C1.9061466 -0.0025865 3.81229265 -0.00560045 5.71843797 -0.0090034 C10.94177332 -0.0170435 16.16509491 -0.0188613 21.38843572 -0.01960087 C27.02815642 -0.0214567 32.66787007 -0.0290068 38.30758667 -0.03573608 C50.63459099 -0.04929975 62.96159205 -0.05534136 75.28860259 -0.05974674 C82.99327841 -0.06251309 90.69795297 -0.06675122 98.40262794 -0.07125092 C119.75538038 -0.08344215 141.1081313 -0.09377634 162.46088696 -0.09712601 C163.84051775 -0.09734763 165.22014854 -0.09756942 166.59977933 -0.09779136 C167.98262711 -0.09801199 169.36547489 -0.09823248 170.74832267 -0.09845281 C173.52226333 -0.09889534 176.29620399 -0.09934246 179.07014465 -0.09979248 C179.75791534 -0.09990187 180.44568603 -0.10001126 181.15429825 -0.10012397 C203.43155744 -0.10375078 225.708784 -0.11965749 247.9860307 -0.14298284 C271.57347968 -0.16763458 295.16090343 -0.18129467 318.74836713 -0.18249393 C331.59224408 -0.1834084 344.43607833 -0.18910302 357.27994347 -0.20731354 C368.22143592 -0.22277258 379.16287247 -0.22780099 390.10437378 -0.21957543 C395.67884326 -0.2156891 401.25320039 -0.21649899 406.82765579 -0.23063278 C450.33166869 -0.33463163 450.33166869 -0.33463163 468.33699036 3.14044189 C470.25721653 3.50418978 470.25721653 3.50418978 472.21623516 3.8752861 C475.15784945 4.46842148 478.0547333 5.14832628 480.96199036 5.89044189 C481.99646301 6.14938232 483.03093567 6.40832275 484.09675598 6.67510986 C514.521592 14.47718691 543.65445678 27.50905089 568.33699036 47.14044189 C569.17359192 47.78497314 570.01019348 48.42950439 570.87214661 49.09356689 C586.44101531 61.23284329 601.33671737 75.44596722 613.33699036 91.14044189 C613.95316223 91.92805908 614.56933411 92.71567627 615.20417786 93.52716064 C651.94500528 142.08298443 660.83617632 195.67976687 660.72916436 254.97343743 C660.72230436 260.6088689 660.73288914 266.24427374 660.74110413 271.87969971 C660.75437061 282.88670146 660.75159546 293.89364148 660.7428662 304.90064555 C660.73606162 313.85530366 660.73518486 322.8099446 660.73843765 331.76460457 C660.73889735 333.0442535 660.73935705 334.32390244 660.73983068 335.64232861 C660.74078996 338.24278625 660.7417626 340.84324388 660.74274845 343.44370151 C660.75103894 367.07657479 660.74247459 390.70940853 660.72672066 414.3422754 C660.71248844 435.85582603 660.71375929 457.36932337 660.72810364 478.88287354 C660.74421407 503.12545121 660.75045622 527.36799122 660.74126685 551.61057526 C660.74031131 554.20120465 660.73936819 556.79183405 660.73843765 559.38246346 C660.73797483 560.65674152 660.737512 561.93101959 660.73703515 563.24391214 C660.73445695 572.17577804 660.7387909 581.10762489 660.74587631 590.03948784 C660.75433556 600.94174554 660.751919 611.84393854 660.73603408 622.74618893 C660.72821022 628.29682521 660.72495784 633.84735406 660.73498154 639.39798927 C660.82703062 695.02281307 660.82703062 695.02281307 653.71199036 718.89044189 C653.36571594 720.09233154 653.01944153 721.29422119 652.66267395 722.53253174 C643.81329533 752.35909511 629.20887607 780.2032353 609.33699036 804.14044189 C608.86003723 804.72035889 608.38308411 805.30027588 607.89167786 805.89776611 C597.09806969 818.97491504 585.6129234 830.63385085 572.05134583 840.83624268 C570.37699164 842.11001084 568.73124655 843.41311805 567.09089661 844.73028564 C559.25600898 850.98764694 551.07860457 856.24092415 542.33699036 861.14044189 C541.57418762 861.57501709 540.81138489 862.00959229 540.02546692 862.45733643 C503.69269537 883.00308811 463.89077481 891.31329188 422.50735474 891.27415466 C420.61980446 891.27602578 418.73225457 891.27832768 416.84470528 891.28101999 C411.68690263 891.28710716 406.52911625 891.28700805 401.37131083 891.28582561 C395.79717997 891.28562082 390.22305423 891.29114778 384.64892578 891.29588318 C373.73923658 891.30417323 362.82955279 891.30693727 351.9198607 891.30749556 C343.04827984 891.30797147 334.17670076 891.31002999 325.30512047 891.31319618 C304.22159618 891.32056709 283.13807298 891.3267215 262.05454731 891.32619762 C261.38110945 891.32618205 260.70767159 891.32616647 260.01382652 891.32615042 C256.60099103 891.32606732 253.18815553 891.32596828 249.77532003 891.32586571 C249.09758563 891.32584576 248.41985124 891.32582582 247.72157943 891.32580527 C246.35103693 891.32576483 244.98049442 891.32572303 243.60995191 891.32567988 C222.29312783 891.32506731 200.97631966 891.33257219 179.65950012 891.34625244 C155.679319 891.36163579 131.69914984 891.37020466 107.71896237 891.36928922 C95.03347277 891.36895774 82.34800112 891.37168347 69.66251564 891.38246727 C58.8618622 891.39159029 48.06123484 891.39373271 37.26057921 891.38695785 C31.7555913 891.38370182 26.25065341 891.38360272 20.74567032 891.3923111 C15.6954125 891.40021763 10.645244 891.3987026 5.59498825 891.39002696 C3.77878286 891.38850108 1.96257066 891.39027327 0.14637331 891.39588704 C-15.81882935 891.4419227 -31.3722717 890.12128753 -47.03800964 886.89044189 C-48.09326843 886.67428223 -49.14852722 886.45812256 -50.23576355 886.2354126 C-81.68028381 879.58869976 -111.91635692 866.50054237 -137.66300964 847.14044189 C-138.27998718 846.67750732 -138.89696472 846.21457275 -139.53263855 845.73760986 C-147.23917921 839.90786458 -154.66061592 833.80696498 -161.66300964 827.14044189 C-162.22632996 826.60435303 -162.78965027 826.06826416 -163.37004089 825.51593018 C-171.76753102 817.46980872 -179.49392618 809.20488105 -186.40422058 799.84356689 C-187.6337036 798.18009258 -188.88517177 796.53516638 -190.13957214 794.89044189 C-209.51772351 769.06314957 -222.00261946 739.19034429 -229.60050964 707.95294189 C-229.78766541 707.19013916 -229.97482117 706.42733643 -230.16764832 705.64141846 C-233.43990222 691.28079368 -233.95509962 677.02475489 -233.91697693 662.37385559 C-233.91928608 660.42113073 -233.92246563 658.46840674 -233.92643142 656.51568455 C-233.93472572 651.19168616 -233.93067871 645.86776014 -233.92445898 640.54376161 C-233.91991336 634.7856495 -233.9269287 629.02754939 -233.93241882 623.2694397 C-233.94129218 612.00555341 -233.93939994 600.74169384 -233.93359354 589.47780652 C-233.92906873 580.31929267 -233.92846769 571.16078629 -233.93064117 562.00227165 C-233.93094764 560.69660191 -233.93125411 559.39093218 -233.93156986 558.04569669 C-233.93220934 555.39287766 -233.93285777 552.74005864 -233.93351504 550.08723962 C-233.93925058 525.94405119 -233.933319 501.80087623 -233.92282985 477.6576901 C-233.91334068 455.64892185 -233.91418791 433.64017674 -233.92375183 411.63140869 C-233.93447688 386.86820505 -233.938662 362.10501438 -233.9325273 337.34180874 C-233.93189024 334.69868179 -233.93126149 332.05555485 -233.93064117 329.4124279 C-233.93017835 327.46195953 -233.93017835 327.46195953 -233.92970617 325.47208776 C-233.92798284 316.33021539 -233.93088654 307.18835127 -233.93560028 298.04648018 C-233.94122282 286.89745731 -233.93966387 275.74846258 -233.92903879 264.59944291 C-233.9238004 258.91633713 -233.92169397 253.23327819 -233.9283371 247.55017281 C-233.93433681 242.33848125 -233.93095567 237.12687956 -233.92038199 231.91519605 C-233.9181649 230.03920749 -233.91924577 228.1632112 -233.92413357 226.2872277 C-233.96035415 211.21859031 -233.02331148 196.43158486 -229.60050964 181.70294189 C-229.38990906 180.79665039 -229.17930847 179.89035889 -228.96232605 178.956604 C-219.21353051 138.96076259 -199.34431957 102.62169539 -170.66300964 73.14044189 C-170.04909363 72.50074463 -169.43517761 71.86104736 -168.80265808 71.20196533 C-160.45013956 62.51651134 -151.93618674 54.46208322 -142.23429871 47.30157471 C-140.76932975 46.21900908 -139.32091794 45.11413647 -137.87394714 44.00762939 C-106.26527989 20.23119827 -67.7397548 6.01838391 -28.66300964 1.14044189 C-28.01830001 1.05238572 -27.37359038 0.96432955 -26.70934409 0.87360501 C-17.83890467 -0.19209297 -8.91843938 -0.00484892 0 0 Z " fill="#020202" transform="translate(298.6630096435547,65.85955810546875)"/>
<path d="M0 0 C5.15052098 -0.04393541 10.30098397 -0.07057417 15.45166016 -0.08789062 C16.68947739 -0.0924527 16.68947739 -0.0924527 17.95230103 -0.09710693 C33.5736285 -0.134889 48.75821457 0.21914011 64.07666016 3.66210938 C65.2694458 3.92427246 66.46223145 4.18643555 67.69116211 4.45654297 C82.04792584 7.71200589 96.08560515 11.82876288 109.45166016 18.03710938 C110.27529053 18.41383789 111.0989209 18.79056641 111.94750977 19.17871094 C122.18388865 23.88345063 132.18562232 28.57678175 141.45166016 35.03710938 C142.44681641 35.68808594 143.44197266 36.3390625 144.46728516 37.00976562 C161.95610719 48.64785855 177.6482291 63.39926007 190.45166016 80.03710938 C190.8727002 80.5764209 191.29374023 81.11573242 191.72753906 81.67138672 C199.66154362 91.8821812 206.30217014 102.67010824 212.45166016 114.03710938 C213.01498047 115.07609375 213.57830078 116.11507812 214.15869141 117.18554688 C228.85425331 146.73860526 233.90264991 178.98663483 233.82666016 211.59960938 C233.82545166 212.56477478 233.82424316 213.52994019 233.82299805 214.52435303 C233.73856122 239.43991156 229.61795816 261.43595689 221.45166016 285.03710938 C221.15356445 285.89981445 220.85546875 286.76251953 220.54833984 287.65136719 C210.81977167 315.25826408 194.56733081 340.20851755 174.71728516 361.58789062 C172.74408499 363.72098805 170.83871313 365.89069924 168.95166016 368.09960938 C162.31987911 375.69206899 155.14854465 382.49512076 147.26806641 388.77539062 C144.45927448 391.03099468 141.74231111 393.37249048 139.01416016 395.72460938 C120.51028907 411.10878019 99.65340804 423.90884332 77.99072266 434.33007812 C74.69198508 435.92119106 71.44978734 437.59590104 68.20166016 439.28710938 C63.31903473 441.73505609 58.39102064 443.53547129 53.18603516 445.17382812 C50.90410881 445.89426487 48.6825122 446.67518927 46.45166016 447.53710938 C36.99230241 451.13925151 27.44776534 453.93634383 17.57666016 456.16210938 C16.43551758 456.42145264 15.294375 456.6807959 14.11865234 456.94799805 C-5.30130043 461.28523158 -24.46592842 462.24406966 -44.29833984 462.22460938 C-45.71616257 462.22470001 -45.71616257 462.22470001 -47.16262817 462.22479248 C-111.77064785 462.16607716 -176.57169095 445.12858388 -225.54833984 401.03710938 C-226.18271973 400.46976074 -226.81709961 399.90241211 -227.47070312 399.31787109 C-258.43040291 371.47285937 -282.78055009 334.95656931 -292.07983398 294.00292969 C-292.53120169 292.10901996 -293.06759744 290.23599448 -293.60693359 288.36523438 C-294.46400924 285.3352408 -295.10057914 282.39155262 -295.61083984 279.28710938 C-295.76681641 278.36414063 -295.92279297 277.44117188 -296.08349609 276.49023438 C-297.3979672 266.72559187 -297.73086324 257.073309 -297.73583984 247.22460938 C-297.75420898 245.3287207 -297.75420898 245.3287207 -297.77294922 243.39453125 C-297.79071421 231.82952301 -296.3468994 220.62072291 -293.79833984 209.34960938 C-293.63205078 208.60976807 -293.46576172 207.86992676 -293.29443359 207.10766602 C-291.94556804 201.32343456 -290.31992855 195.64268539 -288.54833984 189.97460938 C-288.31147461 189.2138208 -288.07460938 188.45303223 -287.83056641 187.66918945 C-286.31437195 182.97196965 -284.49032892 178.50210221 -282.44091797 174.01293945 C-281.46134251 171.84453022 -280.61803187 169.64535192 -279.79833984 167.41210938 C-271.67364239 147.06911689 -258.77235892 128.5325159 -244.54833984 112.03710938 C-243.81486328 111.1734375 -243.08138672 110.30976563 -242.32568359 109.41992188 C-231.82894779 97.40631674 -220.34180185 85.59447942 -207.54833984 76.03710938 C-206.90848145 75.55854492 -206.26862305 75.07998047 -205.609375 74.58691406 C-173.9251018 51.01027903 -138.22496564 29.44937504 -100.10693359 18.11523438 C-97.58200934 17.35027379 -95.17937856 16.54413429 -92.72412109 15.60351562 C-63.07636012 4.3237394 -31.52485652 0.27646963 0 0 Z " fill="#030302" transform="translate(544.54833984375,263.962890625)"/>
<path d="M0 0 C0.62132812 0.53367187 1.24265625 1.06734375 1.8828125 1.6171875 C2.58664062 2.21273438 3.29046875 2.80828125 4.015625 3.421875 C10.47798352 9.35961401 15.32987001 17.00987471 16.07568359 25.921875 C16.90017918 52.22578259 11.48121676 76.56729708 3.8828125 101.6171875 C3.44875245 103.07538211 3.01510576 104.53369989 2.58203125 105.9921875 C0.13091333 114.12098584 0.13091333 114.12098584 -1.1171875 116.6171875 C-0.4571875 116.6171875 0.2028125 116.6171875 0.8828125 116.6171875 C1.16334473 116.02583008 1.44387695 115.43447266 1.73291016 114.82519531 C2.7863342 112.80244222 3.90518361 111.10071442 5.28125 109.2890625 C5.75449707 108.66233643 6.22774414 108.03561035 6.71533203 107.38989258 C7.22435059 106.7223999 7.73336914 106.05490723 8.2578125 105.3671875 C9.34647073 103.92847361 10.43500901 102.48966895 11.5234375 101.05078125 C12.08095703 100.31585449 12.63847656 99.58092773 13.21289062 98.82373047 C15.32206814 96.03677925 17.41477566 93.23773597 19.5065918 90.43774414 C21.95799993 87.15870171 24.41927041 83.88711936 26.8828125 80.6171875 C27.31835449 80.03839844 27.75389648 79.45960938 28.20263672 78.86328125 C34.48704041 70.53239931 41.07663925 62.5242037 47.8828125 54.6171875 C48.47449219 53.91207031 49.06617188 53.20695312 49.67578125 52.48046875 C51.37034128 50.4846536 53.11406902 48.54768485 54.8828125 46.6171875 C55.30159668 46.14845215 55.72038086 45.6797168 56.15185547 45.19677734 C66.62092517 33.59298625 80.6514084 21.51138629 96.86328125 20.2109375 C106.57366739 19.85604246 113.61358713 21.04838104 121.8828125 26.6171875 C122.5221875 27.03871094 123.1615625 27.46023438 123.8203125 27.89453125 C139.59706776 39.90969903 146.6059244 59.82258684 150.46875 78.44140625 C152.76030242 96.01718096 151.06378834 115.32189617 143.8828125 131.6171875 C143.60953125 132.29523438 143.33625 132.97328125 143.0546875 133.671875 C138.50973596 143.95999258 130.51012963 152.03187374 120.8828125 157.6171875 C120.11066406 158.06578125 119.33851563 158.514375 118.54296875 158.9765625 C107.76828598 164.491566 94.78584767 166.80713918 82.8828125 168.6171875 C87.41772712 169.92533595 91.4150345 170.67065972 96.1328125 170.8046875 C112.65658083 172.00145344 129.44776295 180.11190216 140.80859375 192.0234375 C150.72553062 204.42427758 153.10483138 217.2779714 151.8828125 232.6171875 C149.26550023 253.11946695 137.29077469 272.24954907 121.8828125 285.6171875 C111.00224724 293.76471978 98.26860025 296.35807502 84.8828125 294.6171875 C80.25469843 293.45239369 76.14834055 291.74182155 71.8828125 289.6171875 C70.89925781 289.1325 69.91570312 288.6478125 68.90234375 288.1484375 C60.22965078 283.47411949 53.1313311 277.19710483 45.8828125 270.6171875 C45.07529541 269.89426514 45.07529541 269.89426514 44.25146484 269.15673828 C33.34284272 259.36847905 23.08678723 248.89161043 12.78076172 238.47851562 C7.52099556 233.17443827 2.28759625 227.93254641 -3.41430664 223.09741211 C-6.12489656 220.74123911 -8.61001355 218.1870408 -11.1171875 215.6171875 C-10.87484375 216.638125 -10.6325 217.6590625 -10.3828125 218.7109375 C-9.22853264 223.66597991 -8.1596458 228.63752513 -7.1171875 233.6171875 C-6.82908203 234.98182129 -6.82908203 234.98182129 -6.53515625 236.37402344 C-0.3437238 266.54146214 0.3071448 300.50666117 -15.99609375 327.7578125 C-17.90804808 330.52338684 -19.9227761 333.07103074 -22.1171875 335.6171875 C-22.85582031 336.48988281 -23.59445312 337.36257813 -24.35546875 338.26171875 C-34.97275177 349.8521079 -50.38007159 356.10657595 -65.984375 356.9609375 C-84.70555571 357.5203139 -104.49829733 354.00322959 -119.16015625 341.5 C-128.9698677 332.06231353 -134.86934246 323.40260899 -135.4921875 309.5546875 C-134.69143219 280.72749642 -112.67596835 256.29812325 -95.3671875 234.9921875 C-91.461773 230.15993021 -87.83430718 225.13932669 -84.1796875 220.1171875 C-79.75321592 214.04320565 -75.3029093 208.23761962 -70.08203125 202.8203125 C-68.39549358 200.92924442 -66.95387762 199.04379696 -65.49438477 196.97949219 C-65.04805191 196.34968445 -64.60171906 195.71987671 -64.14186096 195.07098389 C-63.6346476 194.35135468 -63.6346476 194.35135468 -63.1171875 193.6171875 C-64.10074219 193.95862793 -65.08429688 194.30006836 -66.09765625 194.65185547 C-158.3876098 226.6462422 -158.3876098 226.6462422 -203.1171875 225.6171875 C-203.1171875 224.9571875 -203.1171875 224.2971875 -203.1171875 223.6171875 C-204.3753125 223.5759375 -205.6334375 223.5346875 -206.9296875 223.4921875 C-217.31706625 222.28549044 -225.75826331 215.5833123 -232.1171875 207.6171875 C-237.86703957 199.1458752 -241.68283634 190.61590666 -244.1171875 180.6171875 C-244.31054688 179.84503906 -244.50390625 179.07289063 -244.703125 178.27734375 C-247.77382925 158.54951738 -243.53811881 139.83757633 -232.1171875 123.6171875 C-222.56006427 111.2695302 -209.97029591 101.15462092 -194.1171875 98.6171875 C-177.1600417 97.15998032 -161.71580546 99.38893858 -145.6796875 104.9296875 C-144.55498047 105.30802734 -143.43027344 105.68636719 -142.27148438 106.07617188 C-134.47292876 108.72347019 -126.78523083 111.61513767 -119.1171875 114.6171875 C-117.83581909 115.11182495 -117.83581909 115.11182495 -116.52856445 115.61645508 C-104.11591955 120.41222086 -92.07176119 125.77513339 -80.1171875 131.6171875 C-81.04982152 130.35379595 -81.98527602 129.09248624 -82.921875 127.83203125 C-83.44249512 127.12941162 -83.96311523 126.42679199 -84.49951172 125.70288086 C-86.00079568 123.7672532 -87.57256639 121.97022747 -89.2421875 120.1796875 C-106.39917089 100.82114429 -125.12743245 73.00155246 -124.53125 46.3359375 C-122.79520482 30.74428648 -111.20651978 19.50970379 -99.921875 9.7109375 C-86.66303343 -0.36388118 -70.39462836 -6.54807745 -54.1171875 -9.3828125 C-52.73080078 -9.66125 -52.73080078 -9.66125 -51.31640625 -9.9453125 C-33.73169756 -12.35005899 -14.62697017 -11.07060879 0 0 Z " fill="#FAFAFA" transform="translate(546.1171875,312.3828125)"/>
<path d="M0 0 C5.15052098 -0.04393541 10.30098397 -0.07057417 15.45166016 -0.08789062 C16.68947739 -0.0924527 16.68947739 -0.0924527 17.95230103 -0.09710693 C33.5736285 -0.134889 48.75821457 0.21914011 64.07666016 3.66210938 C65.2694458 3.92427246 66.46223145 4.18643555 67.69116211 4.45654297 C82.04792584 7.71200589 96.08560515 11.82876288 109.45166016 18.03710938 C110.27529053 18.41383789 111.0989209 18.79056641 111.94750977 19.17871094 C122.18388865 23.88345063 132.18562232 28.57678175 141.45166016 35.03710938 C142.44681641 35.68808594 143.44197266 36.3390625 144.46728516 37.00976562 C161.95610719 48.64785855 177.6482291 63.39926007 190.45166016 80.03710938 C190.8727002 80.5764209 191.29374023 81.11573242 191.72753906 81.67138672 C199.66154362 91.8821812 206.30217014 102.67010824 212.45166016 114.03710938 C213.01498047 115.07609375 213.57830078 116.11507812 214.15869141 117.18554688 C228.85425331 146.73860526 233.90264991 178.98663483 233.82666016 211.59960938 C233.82545166 212.56477478 233.82424316 213.52994019 233.82299805 214.52435303 C233.73856122 239.43991156 229.61795816 261.43595689 221.45166016 285.03710938 C221.15356445 285.89981445 220.85546875 286.76251953 220.54833984 287.65136719 C210.81977167 315.25826408 194.56733081 340.20851755 174.71728516 361.58789062 C172.74408499 363.72098805 170.83871313 365.89069924 168.95166016 368.09960938 C162.31987911 375.69206899 155.14854465 382.49512076 147.26806641 388.77539062 C144.45927448 391.03099468 141.74231111 393.37249048 139.01416016 395.72460938 C120.51028907 411.10878019 99.65340804 423.90884332 77.99072266 434.33007812 C74.69198508 435.92119106 71.44978734 437.59590104 68.20166016 439.28710938 C63.31903473 441.73505609 58.39102064 443.53547129 53.18603516 445.17382812 C50.90410881 445.89426487 48.6825122 446.67518927 46.45166016 447.53710938 C36.99230241 451.13925151 27.44776534 453.93634383 17.57666016 456.16210938 C16.43551758 456.42145264 15.294375 456.6807959 14.11865234 456.94799805 C-5.30130043 461.28523158 -24.46592842 462.24406966 -44.29833984 462.22460938 C-45.71616257 462.22470001 -45.71616257 462.22470001 -47.16262817 462.22479248 C-111.77064785 462.16607716 -176.57169095 445.12858388 -225.54833984 401.03710938 C-226.18271973 400.46976074 -226.81709961 399.90241211 -227.47070312 399.31787109 C-258.43040291 371.47285937 -282.78055009 334.95656931 -292.07983398 294.00292969 C-292.53120169 292.10901996 -293.06759744 290.23599448 -293.60693359 288.36523438 C-294.46400924 285.3352408 -295.10057914 282.39155262 -295.61083984 279.28710938 C-295.76681641 278.36414063 -295.92279297 277.44117188 -296.08349609 276.49023438 C-297.3979672 266.72559187 -297.73086324 257.073309 -297.73583984 247.22460938 C-297.75420898 245.3287207 -297.75420898 245.3287207 -297.77294922 243.39453125 C-297.79071421 231.82952301 -296.3468994 220.62072291 -293.79833984 209.34960938 C-293.63205078 208.60976807 -293.46576172 207.86992676 -293.29443359 207.10766602 C-291.94556804 201.32343456 -290.31992855 195.64268539 -288.54833984 189.97460938 C-288.31147461 189.2138208 -288.07460938 188.45303223 -287.83056641 187.66918945 C-286.31437195 182.97196965 -284.49032892 178.50210221 -282.44091797 174.01293945 C-281.46134251 171.84453022 -280.61803187 169.64535192 -279.79833984 167.41210938 C-271.67364239 147.06911689 -258.77235892 128.5325159 -244.54833984 112.03710938 C-243.81486328 111.1734375 -243.08138672 110.30976563 -242.32568359 109.41992188 C-231.82894779 97.40631674 -220.34180185 85.59447942 -207.54833984 76.03710938 C-206.90848145 75.55854492 -206.26862305 75.07998047 -205.609375 74.58691406 C-173.9251018 51.01027903 -138.22496564 29.44937504 -100.10693359 18.11523438 C-97.58200934 17.35027379 -95.17937856 16.54413429 -92.72412109 15.60351562 C-63.07636012 4.3237394 -31.52485652 0.27646963 0 0 Z M-49.86083984 23.78710938 C-51.09922607 24.04806396 -52.3376123 24.30901855 -53.61352539 24.57788086 C-63.62610677 26.73669614 -73.46205848 29.31731474 -83.24951172 32.33007812 C-85.48565205 33.01782902 -87.72690602 33.68567044 -89.97021484 34.34960938 C-122.49651745 44.13922403 -154.36287632 60.79351041 -181.54833984 81.03710938 C-182.1408252 81.47265137 -182.73331055 81.90819336 -183.34375 82.35693359 C-190.56039536 87.67284823 -197.30019798 93.37635998 -203.82958984 99.50585938 C-206.12746948 101.64526455 -208.46492791 103.69729928 -210.86083984 105.72460938 C-214.1443178 108.57480364 -216.9834243 111.65096221 -219.78662109 114.97070312 C-220.9400885 116.32366157 -222.12452564 117.65095437 -223.34130859 118.94726562 C-242.43756738 139.38223121 -256.61137296 166.32869019 -264.54833984 193.03710938 C-264.76619141 193.75012207 -264.98404297 194.46313477 -265.20849609 195.19775391 C-265.89996983 197.47319642 -266.571163 199.75370571 -267.23583984 202.03710938 C-267.53977661 203.04922485 -267.53977661 203.04922485 -267.84985352 204.08178711 C-271.39260088 216.67575886 -271.8990638 229.53453155 -271.86401367 242.52514648 C-271.86084706 244.96903929 -271.88444948 247.41172358 -271.90966797 249.85546875 C-272.01453969 274.87367191 -265.63414595 302.11221752 -253.54833984 324.03710938 C-252.87550556 325.31915847 -252.20367281 326.60173357 -251.53271484 327.88476562 C-243.10523409 343.69882147 -232.75485333 357.59780693 -220.19726562 370.35742188 C-218.6605126 371.92284397 -217.14678105 373.50711409 -215.63818359 375.09960938 C-209.43417266 381.52678617 -202.86009935 386.91798277 -195.54833984 392.03710938 C-195.01321777 392.42189453 -194.4780957 392.80667969 -193.92675781 393.203125 C-166.7888706 412.67039719 -133.82115723 427.02079933 -100.29077148 429.64794922 C-90.0734191 430.45440245 -81.20767789 432.6355937 -71.67797852 436.40454102 C-66.00751976 438.08884213 -60.19619063 438.19521447 -54.32568359 438.20507812 C-53.55161163 438.20935822 -52.77753967 438.21363831 -51.98001099 438.2180481 C-49.48189461 438.22801021 -46.98397228 438.22810485 -44.48583984 438.22460938 C-43.20421463 438.2232045 -43.20421463 438.2232045 -41.896698 438.22177124 C-7.32295138 438.13947114 25.79350349 432.49145386 57.45166016 418.03710938 C58.49064453 417.62460937 59.52962891 417.21210937 60.60009766 416.78710938 C86.93901619 406.27656706 112.35868558 389.30280013 133.18994141 370.11523438 C135.24192432 368.22982003 137.3331797 366.40940905 139.45166016 364.59960938 C147.07579409 357.92657464 153.92665006 350.72692467 160.24072266 342.80664062 C161.6894282 340.99191937 163.16280003 339.19655712 164.66259766 337.42382812 C178.35060972 321.21434015 189.14541736 302.93587651 196.45166016 283.03710938 C196.86931641 281.9671875 197.28697266 280.89726563 197.71728516 279.79492188 C207.6051149 253.69856109 211.40337718 227.82207868 210.45166016 200.03710938 C210.42507324 199.16505859 210.39848633 198.29300781 210.37109375 197.39453125 C209.47916861 174.87227802 202.83558433 150.46825959 193.45166016 130.03710938 C193.01200928 129.05895264 193.01200928 129.05895264 192.56347656 128.06103516 C178.6879209 97.56177007 155.37019616 68.77790832 127.45166016 50.03710938 C126.61320557 49.4727417 126.61320557 49.4727417 125.7578125 48.89697266 C100.29203597 32.02087096 69.45625903 23.61601794 39.45166016 20.03710938 C38.57010254 19.93180908 37.68854492 19.82650879 36.78027344 19.71801758 C27.31686347 18.76489885 17.81027855 18.85102581 8.30908203 18.85180664 C5.35385523 18.84962941 2.39900833 18.83144334 -0.55615234 18.8125 C-17.37476284 18.7605774 -33.39806678 20.26390295 -49.86083984 23.78710938 Z " fill="#FAFAFA" transform="translate(544.54833984375,263.962890625)"/>
<path d="M0 0 C1.19665283 0.01800659 1.19665283 0.01800659 2.41748047 0.03637695 C7.88478663 0.16799106 12.83299236 0.65605562 18.0625 2.3125 C19.18011719 2.63089844 20.29773438 2.94929688 21.44921875 3.27734375 C48.28150809 11.08814812 73.86706341 23.63702389 98.93359375 35.80761719 C101.80228545 37.18734687 104.67990368 38.54646001 107.56283569 39.89614868 C110.07617396 41.07363838 112.58574325 42.25903843 115.09503174 43.44512939 C116.90834125 44.29877307 118.72635874 45.14239291 120.54443359 45.98583984 C121.64094238 46.5061377 122.73745117 47.02643555 123.8671875 47.5625 C124.84671387 48.02140625 125.82624023 48.4803125 126.83544922 48.953125 C129.0625 50.3125 129.0625 50.3125 130.0625 53.3125 C129.31226563 53.55484375 128.56203125 53.7971875 127.7890625 54.046875 C126.76554688 54.38203125 125.74203125 54.7171875 124.6875 55.0625 C123.68976563 55.38734375 122.69203125 55.7121875 121.6640625 56.046875 C118.97657499 56.99128493 116.36182504 57.98605758 113.7265625 59.05859375 C106.16312869 62.11324875 98.48385751 64.85574359 90.8125 67.625 C90.01392578 67.91351837 89.21535156 68.20203674 88.39257812 68.4992981 C76.50208035 72.78791576 64.58424476 76.90670608 52.48339844 80.56835938 C50.02324141 81.32456738 47.57820439 82.11931459 45.1328125 82.921875 C24.23854698 89.65996654 -2.46381582 96.78970602 -23.9375 89.3125 C-32.79898028 84.43934616 -37.91360669 76.76965306 -41.3125 67.4375 C-45.30987131 53.06039983 -43.9925224 36.86272934 -37.546875 23.41015625 C-36.12915675 20.92914931 -34.61594256 18.62352142 -32.9375 16.3125 C-32.26074219 15.34570312 -32.26074219 15.34570312 -31.5703125 14.359375 C-24.08788538 4.6364471 -11.99918161 -0.28240885 0 0 Z " fill="#020202" transform="translate(363.9375,427.6875)"/>
<path d="M0 0 C10.12554788 4.75280819 17.43902007 16.49468534 21.41015625 26.58203125 C28.70138407 46.9682416 29.92808791 68.60916714 20.8359375 88.65625 C14.7736007 99.69744213 6.64308885 105.02327376 -5 109 C-7.73849324 109.78968809 -10.49402106 110.44334038 -13.27734375 111.0546875 C-14.05037338 111.22491425 -14.82340302 111.39514099 -15.61985779 111.57052612 C-24.52910799 113.44197151 -33.50699971 114.30526336 -42.5625 115.125 C-45.85579259 115.43673349 -49.14857557 115.75374067 -52.44140625 116.0703125 C-53.64100479 116.18492325 -53.64100479 116.18492325 -54.86483765 116.30184937 C-71.46590241 117.76580652 -71.46590241 117.76580652 -87.75 121.125 C-94.90558766 122.98446443 -101.58891723 123.46399823 -109 123 C-99.20024163 96.86731103 -78.33532465 72.63795677 -61.36132812 50.75927734 C-60.2484023 49.32101632 -59.14609066 47.87454748 -58.046875 46.42578125 C-52.66839981 39.36326893 -46.84434165 32.67717844 -41 26 C-40.50306641 25.42636719 -40.00613281 24.85273438 -39.49414062 24.26171875 C-16.16067588 -2.55481273 -16.16067588 -2.55481273 0 0 Z " fill="#020202" transform="translate(651,351)"/>
<path d="M0 0 C4.92705884 3.78141751 8.50469644 7.76408932 10.5 13.75 C11.66872337 40.79371518 4.54467642 63.94661113 -3.9887085 89.27774048 C-7.03408743 98.31878156 -9.98146705 107.38775466 -12.86254883 116.48266602 C-15.01130808 123.26025287 -17.23568376 130.01013848 -19.5 136.75 C-20.16 136.75 -20.82 136.75 -21.5 136.75 C-22.9453125 135.24609375 -22.9453125 135.24609375 -24.625 133.1875 C-26.96676936 130.43388572 -29.29668052 127.95066757 -32.0625 125.625 C-42.22726359 116.96319756 -51.24832541 107.22806982 -59.5 96.75 C-60.97903874 94.99989188 -62.45820807 93.24989411 -63.9375 91.5 C-76.24469311 76.41031106 -91.80647134 55.44820953 -93.0625 35.3125 C-91.13029844 23.07522346 -81.4763988 15.11408877 -71.96484375 8.14453125 C-52.5316194 -5.5804222 -21.62183807 -14.10809082 0 0 Z " fill="#020202" transform="translate(533.5,325.25)"/>
<path d="M0 0 C0.71897461 0.16193848 1.43794922 0.32387695 2.17871094 0.49072266 C17.97296792 4.10093378 30.9666566 9.88277979 39.9375 24.0625 C43.70435233 34.4213439 41.07614925 47.16928711 37 57 C30.3149081 70.39794838 22.75457888 83.12271056 9 90 C-1.56307684 90.93894016 -9.28303153 88.96064167 -17.43359375 82.19921875 C-18.28050781 81.47347656 -19.12742187 80.74773437 -20 80 C-21.07341685 79.10970935 -22.14769294 78.22045404 -23.22265625 77.33203125 C-29.93333017 71.73399329 -36.30313578 65.90565206 -42.38574219 59.62841797 C-45.03196873 56.90805522 -47.73239357 54.33994884 -50.62207031 51.87792969 C-55.36332344 47.74875555 -59.76732371 43.32291139 -64.1796875 38.84765625 C-65.93085122 37.08384699 -67.68215772 35.32017948 -69.43359375 33.55664062 C-72.15613054 30.80933566 -74.87702803 28.06044704 -77.59521484 25.30883789 C-80.24385486 22.62975649 -82.89887809 19.95712814 -85.5546875 17.28515625 C-86.35292938 16.47345474 -87.15117126 15.66175323 -87.97360229 14.82545471 C-92.76500153 10.01314635 -97.71992044 5.70886389 -103.14456177 1.61888123 C-103.75685638 1.08465042 -104.369151 0.55041962 -105 0 C-105 -0.66 -105 -1.32 -105 -2 C-100.62546599 -2.48348198 -96.25029531 -2.96096074 -91.875 -3.4375 C-90.04775391 -3.63956055 -90.04775391 -3.63956055 -88.18359375 -3.84570312 C-58.86326738 -7.02595017 -28.85949165 -6.88763246 0 0 Z " fill="#020202" transform="translate(638,499)"/>
<path d="M0 0 C1.90224137 2.85336205 2.48909726 4.45085413 3.21875 7.7109375 C3.42886719 8.62617187 3.63898438 9.54140625 3.85546875 10.484375 C4.06816406 11.43828125 4.28085937 12.3921875 4.5 13.375 C4.92343332 15.25863672 5.35040891 17.14148133 5.78125 19.0234375 C5.96751953 19.85794434 6.15378906 20.69245117 6.34570312 21.55224609 C6.95559916 24.03620623 6.95559916 24.03620623 7.99780273 26.46069336 C9.06625595 29.16787531 9.68016437 31.75355649 10.25390625 34.60546875 C10.46853516 35.67216797 10.68316406 36.73886719 10.90429688 37.83789062 C11.23010742 39.49594727 11.23010742 39.49594727 11.5625 41.1875 C11.78357422 42.27353516 12.00464844 43.35957031 12.23242188 44.47851562 C15.58390286 61.33717375 16.09247951 78.09278825 13.6875 95.125 C13.56987305 95.96458252 13.45224609 96.80416504 13.33105469 97.66918945 C11.29870627 110.78199501 7.00290117 122.83734253 -3 132 C-11.82117407 138.16230954 -20.08947764 139.36991876 -30.625 139.3125 C-32.23133301 139.30404053 -32.23133301 139.30404053 -33.87011719 139.29541016 C-46.66808572 139.09914614 -60.08043669 137.10454029 -70.01171875 128.1953125 C-74.8970036 122.68310248 -76.42325456 118.40686546 -76.23828125 111.046875 C-74.4322248 87.95303838 -56.70780505 68.48761866 -43 51 C-41.79147956 49.43764471 -40.58312854 47.87515835 -39.375 46.3125 C-35.6257877 41.50692765 -31.83252436 36.73941019 -28 32 C-27.25919189 31.07888428 -27.25919189 31.07888428 -26.50341797 30.13916016 C-18.07675126 19.6808173 -9.28992598 9.69936041 0 0 Z " fill="#030303" transform="translate(507,509)"/>
<path d="M0 0 C3.54568826 3.34870558 5.09338934 5.89821652 5.71875 10.796875 C5.75274962 12.15586467 5.76229973 13.51564073 5.75 14.875 C5.74572998 15.5851123 5.74145996 16.29522461 5.73706055 17.02685547 C5.53625026 23.23849234 4.00051033 27.27754375 0.25 32.125 C-0.801875 33.671875 -0.801875 33.671875 -1.875 35.25 C-6.99817645 41.05626664 -14.08564367 45.25584619 -21.75 46.125 C-21.75 46.785 -21.75 47.445 -21.75 48.125 C-36.08790683 48.70714058 -36.08790683 48.70714058 -41.75 45.125 C-45.9885213 41.04419112 -49.40707424 36.99113743 -50.12109375 31.0234375 C-50.29861927 21.60414228 -49.13454491 15.11801236 -42.8359375 7.9453125 C-31.03702134 -3.42455216 -14.50253166 -9.88808977 0 0 Z " fill="#F7F7F7" transform="translate(388.75,564.875)"/>
<path d="M0 0 C5.11612534 4.52122705 9.06640479 9.00118213 10.05859375 15.98828125 C10.22641867 22.80987073 9.32796534 27.2585895 4.6875 32.375 C-1.69893099 38.5143737 -8.5539116 42.32480568 -17.5 42.75 C-24.4045071 42.07086815 -27.82296776 39.22861338 -32.11328125 34.09375 C-35.64510522 29.03185246 -34.99924827 22.22902893 -34.3125 16.375 C-31.67164702 9.22228382 -26.92443329 4.07561237 -20.3125 0.375 C-13.76709047 -2.29164833 -6.44336037 -3.16089376 0 0 Z " fill="#F8F8F8" transform="translate(586.3125,622.625)"/>
<path d="M0 0 C4.41033442 2.99753238 7.61310022 6.49164442 9.3046875 11.56640625 C9.89871538 17.13663491 9.92855502 22.17598354 6.78515625 26.96484375 C2.88870231 31.180005 -2.90372207 35.27698939 -8.671875 35.875 C-15.76467015 36.12560197 -20.73818681 36.18602974 -26.14453125 31.2890625 C-30.95325662 25.94738017 -33.08583019 21.13009745 -32.96875 13.90625 C-32.23526889 7.62974732 -28.18934078 3.57805657 -23.41015625 -0.2109375 C-15.81349295 -5.6272373 -7.8027363 -4.265982 0 0 Z " fill="#F8F8F8" transform="translate(722.6953125,462.43359375)"/>
<path d="M0 0 C3.25277234 1.63205302 5.59967444 2.81801748 7.125 6.25 C8.87576177 12.59651143 7.85294754 16.34124296 4.62109375 22.04296875 C1.72497174 26.31531584 -0.8442496 27.85433121 -5.90234375 28.83984375 C-15.4785288 29.99161858 -15.4785288 29.99161858 -20 27.6875 C-23.86758179 24.40846327 -25.52614087 21.92749384 -26.1875 16.8515625 C-26.462586 11.12633511 -25.78403944 7.68728801 -21.875 3.25 C-15.27425635 -2.70676866 -8.14156112 -3.39231714 0 0 Z " fill="#F7F7F7" transform="translate(387.875,364.75)"/>
<path d="M0 0 C4.04679983 0.64380906 5.9261303 2.54945145 8.75 5.4375 C11.34454961 9.68312663 11.54662085 14.60144815 10.75 19.4375 C8.78172284 23.96218493 6.11532024 27.96381853 1.75 30.4375 C-2.65529834 31.90593278 -6.6623776 32.29006699 -11.25 31.4375 C-14.94090531 29.14120386 -18.28451014 26.36847972 -20.25 22.4375 C-20.92936968 17.41942852 -21.28782127 12.58009876 -19.0390625 7.9375 C-15.2729469 3.12818805 -11.62031534 1.3581627 -5.60546875 0.62109375 C-3.73122906 0.47500873 -1.86311899 0.25080448 0 0 Z " fill="#F8F8F8" transform="translate(600.25,303.5625)"/>
<path d="M0 0 C0.46509643 5.69743121 -0.55173151 9.49154959 -4 14 C-6.27787994 16.67549804 -8.50682021 18.73256481 -12.09375 19.375 C-14.25 19.4375 -14.25 19.4375 -18 19 C-20 17 -20 17 -20.4375 13.1875 C-20.35031509 9.74369597 -20.08126594 9.1021629 -17.8125 6.25 C-16.4203125 5.13625 -16.4203125 5.13625 -15 4 C-14.278125 3.236875 -13.55625 2.47375 -12.8125 1.6875 C-8.64993191 -0.81004085 -4.73793546 -0.33119549 0 0 Z " fill="#090909" transform="translate(376,578)"/>
<path d="M0 0 C4.24465971 0.27682563 6.81617671 1.18354094 10 4 C8.63016497 7.16115776 8.0109362 7.9927092 5 10 C2.4375 10.25 2.4375 10.25 0 10 C-2 8 -2 8 -2.25 5 C-2 2 -2 2 0 0 Z " fill="#0E0E0E" transform="translate(708,474)"/>
<path d="M0 0 C0.33 2.31 0.66 4.62 1 7 C-2.42346555 10.14958831 -5.44262737 10.56179109 -10 11 C-9.49697411 6.59852343 -7.97554199 4.24604581 -5 1 C-3 0 -3 0 0 0 Z " fill="#171717" transform="translate(579,636)"/>
<path d="M0 0 C0.66 0.33 1.32 0.66 2 1 C-17.52297178 22.37286419 -17.52297178 22.37286419 -24 26 C-22.4152642 22.13671373 -19.94043113 19.71123077 -16.9921875 16.796875 C-16.50670441 16.3142218 -16.02122131 15.8315686 -15.52102661 15.33428955 C-13.97700134 13.80141438 -12.42615176 12.27565996 -10.875 10.75 C-9.82375991 9.70879639 -8.77297343 8.66713459 -7.72265625 7.625 C-5.15366996 5.07800536 -2.57851839 2.53734823 0 0 Z " fill="#8E8E8E" transform="translate(144,123)"/>
</svg>
