<svg width="81" height="30" viewBox="0 0 81 30" fill="none" xmlns="http://www.w3.org/2000/svg">
<g clip-path="url(#clip0_7716_6832)"><path d="M1.18278 22.4364C0.40062 21.4313 0 19.8422 0 17.6693C0 16.176 0.209849 14.4051 0.620007 12.3375L1.89818 6.31641H7.14439L5.99976 11.7153C5.38929 14.721 5.08406 16.7599 5.08406 17.832C5.08406 19.019 5.40837 19.6125 6.06653 19.6125C6.96316 19.6125 7.91701 18.5308 8.91856 16.377C9.92011 14.2137 10.9026 10.8633 11.866 6.32598H17.1122L15.3762 14.2232C15.1759 15.1039 15.0137 15.9176 14.8706 16.6738C14.7276 17.43 14.6608 18.0043 14.6608 18.3968C14.6608 18.818 14.7371 19.1243 14.8897 19.3158C15.0423 19.5168 15.2808 19.6125 15.6146 19.6125C16.2728 19.6125 16.9596 19.0956 17.694 18.0522C18.4285 17.0088 19.1535 15.4868 19.8784 13.4766C20.6033 11.4664 21.2519 9.08284 21.8433 6.32598H27.0895C26.5172 9.37001 25.6111 12.2513 24.371 14.9412C23.1215 17.6406 21.6526 19.8135 19.9642 21.4696C18.2664 23.1256 16.5208 23.9488 14.6989 23.9488C13.7355 23.9488 12.9915 23.6329 12.4574 23.0107C11.9232 22.3885 11.6561 21.4887 11.6561 20.3304C11.6561 19.8901 11.7134 19.3445 11.8183 18.684V18.55C11.8183 18.2819 11.6847 18.1575 11.4272 18.1575C11.1411 18.1575 10.9121 18.3298 10.7404 18.684C9.92965 20.4836 8.97579 21.8046 7.86932 22.6661C6.76285 23.5181 5.59914 23.9488 4.3782 23.9488C3.0428 23.9488 1.98402 23.4415 1.20186 22.4364H1.18278Z" fill="black" data-darkreader-inline-fill="" style="--darkreader-inline-fill: var(--darkreader-text-000000, #e8e6e3);"></path><path d="M27.959 10.5944C28.9414 9.12984 30.1433 7.962 31.5645 7.09091C32.9858 6.22939 34.4929 5.78906 36.0858 5.78906C37.0492 5.78906 37.8218 5.99966 38.3941 6.41127C38.976 6.83246 39.472 7.37809 39.8822 8.05773C39.9871 8.21089 40.092 8.31618 40.1779 8.38319C40.2637 8.4502 40.3877 8.4502 40.5403 8.38319C40.7406 8.27789 40.836 8.13431 40.836 7.95243C40.836 7.88543 40.8169 7.7897 40.7693 7.65569C40.7025 7.52167 40.6262 7.36851 40.5403 7.19621C40.4545 7.02391 40.4068 6.84203 40.4068 6.66973C40.4068 6.53571 40.4163 6.42084 40.4354 6.30597H45.6816L43.7453 15.5147C43.3924 17.1132 43.1444 18.3864 42.9917 19.3149C42.8391 20.2434 42.7628 21.0379 42.7628 21.6984C42.7628 22.3589 42.8582 23.0386 43.0585 23.6704H37.7455C37.6406 23.23 37.5834 22.8567 37.5834 22.5504C37.5834 21.976 37.6788 21.4496 37.8791 20.9518C38.0794 20.454 38.3465 19.9275 38.6994 19.3532C38.8711 19.0852 38.9951 18.8937 39.0618 18.7597C39.1286 18.6257 39.1572 18.5204 39.1572 18.4342C39.1572 18.3002 39.0905 18.2045 38.9569 18.1375C38.9378 18.1184 38.8806 18.1088 38.7948 18.1088C38.7089 18.1088 38.6135 18.1375 38.5182 18.1949C38.4228 18.2524 38.356 18.3194 38.3369 18.4055C36.2194 22.2632 33.7012 24.1968 30.8014 24.1968C29.2944 24.1968 28.0543 23.6225 27.1005 22.4834C26.1371 21.3443 25.6602 19.8222 25.6602 17.9078C25.6602 17.008 25.746 16.1656 25.9177 15.3711C26.2897 13.6385 26.9669 12.0399 27.9494 10.5657L27.959 10.5944ZM35.628 18.7789C36.4387 18.1471 37.1541 17.2377 37.7932 16.0603C38.4228 14.8829 38.9092 13.5427 39.2335 12.0303C38.7948 11.3698 38.356 10.9103 37.9268 10.6519C37.488 10.3934 36.9252 10.2594 36.2194 10.2594C34.9507 10.2594 33.8729 10.738 32.9953 11.6857C32.1082 12.6429 31.4882 13.9352 31.1448 15.5817C31.0399 16.1752 30.9827 16.6538 30.9827 17.0271C30.9827 17.9078 31.183 18.5683 31.5931 19.0373C31.9938 19.4968 32.5279 19.7265 33.1861 19.7265C34.0159 19.7265 34.8363 19.4106 35.647 18.7693L35.628 18.7789Z" fill="black" data-darkreader-inline-fill="" style="--darkreader-inline-fill: var(--darkreader-text-000000, #e8e6e3);"></path><path d="M53.3016 6.31426L51.5942 14.336C51.2222 16.1547 51.041 17.3226 51.041 17.8203C51.041 18.2607 51.1268 18.5765 51.289 18.7776C51.4511 18.9786 51.7182 19.0743 52.0902 19.0743C52.7007 19.0743 53.521 18.433 54.5512 17.1503C55.5813 15.8675 56.5543 14.3168 57.47 12.5076C58.3857 10.6984 59.0152 9.06155 59.3395 7.58739L59.5971 6.30469H64.8433L62.1534 18.9403C61.5429 21.8982 60.8466 24.1381 60.0549 25.6697C59.2728 27.1917 58.1472 28.2926 56.6783 28.9722C55.2093 29.6518 53.1299 29.9965 50.421 29.9965H43.5723L44.4594 25.7846H48.952C51.0314 25.7846 52.529 25.6506 53.4638 25.3921C54.389 25.1337 55.0662 24.6263 55.4955 23.8988C55.9247 23.1617 56.3158 21.9173 56.6878 20.1656C56.7736 19.6869 56.9263 19.237 57.1266 18.8159C57.3364 18.4042 57.5272 18.0309 57.718 17.715C57.8992 17.3991 58.0327 17.179 58.0995 17.0737C58.1854 16.9014 58.233 16.7769 58.233 16.7099C58.233 16.5759 58.1567 16.4802 58.0041 16.4132C57.9564 16.394 57.9087 16.3845 57.842 16.3845C57.6894 16.3845 57.5367 16.4898 57.3841 16.7099C56.3826 18.5765 55.1235 20.156 53.6164 21.4674C52.1093 22.7693 50.5259 23.4202 48.8662 23.4202C47.6452 23.4202 46.7677 23.1617 46.2431 22.6448C45.7184 22.1279 45.4609 21.3143 45.4609 20.1943C45.4609 19.1413 45.6898 17.581 46.1477 15.5229L48.084 6.31426H53.3302H53.3016Z" fill="black" data-darkreader-inline-fill="" style="--darkreader-inline-fill: var(--darkreader-text-000000, #e8e6e3);"></path><path d="M72.1412 0.113109C72.9901 0.189689 73.6101 0.361992 73.9917 0.620448C74.3732 0.878904 74.564 1.30966 74.564 1.90315C74.564 2.38178 74.4686 3.02313 74.2683 3.80807L71.216 16.9702C71.0157 17.9178 70.9203 18.4826 70.9203 18.6836C70.9203 19.0378 71.0347 19.258 71.2637 19.3441C71.4926 19.4303 71.96 19.4781 72.6563 19.4781H73.8391L72.952 23.69H69.1461C67.7439 23.69 66.7519 23.5081 66.1605 23.1348C65.5691 22.7615 65.2734 22.0723 65.2734 21.0672C65.2734 20.4545 65.3688 19.7079 65.5691 18.8272L68.5547 6.00015C68.7073 5.33966 68.7836 4.93761 68.7836 4.78446C68.7836 4.51643 68.6787 4.36327 68.4689 4.30583C68.259 4.2484 67.8107 4.21968 67.1048 4.21968L67.9919 0.0078125C69.8901 0.0078125 71.2732 0.0461022 72.1221 0.122682L72.1412 0.113109Z" fill="black" data-darkreader-inline-fill="" style="--darkreader-inline-fill: var(--darkreader-text-000000, #e8e6e3);"></path><path d="M77.6923 7.95329H77.4443V6.55572H76.9102V6.31641H78.2265V6.55572H77.6923V7.95329ZM78.6843 7.95329H78.4268V6.31641H78.6843L79.2185 7.65655L79.7527 6.31641H80.0007V7.95329H79.7527V6.90032L79.333 7.95329H79.0945L78.6843 6.9099V7.95329Z" fill="black" data-darkreader-inline-fill="" style="--darkreader-inline-fill: var(--darkreader-text-000000, #e8e6e3);"></path></g><defs><clipPath id="clip0_7716_6832"><rect width="80.0007" height="30" fill="white"></rect></clipPath></defs></svg>
